<svg id="svg" version="1.1" xmlns="http://www.w3.org/2000/svg" xmlns:xlink="http://www.w3.org/1999/xlink" width="400" height="400" viewBox="0, 0, 400,400"><g id="svgg"><path id="path0" d="M199.000 127.991 C 198.476 128.222,199.822 128.353,202.900 128.372 C 205.485 128.387,207.600 128.242,207.600 128.049 C 207.600 127.587,200.031 127.535,199.000 127.991 M183.433 128.747 C 183.115 129.261,186.292 129.595,188.923 129.323 C 192.684 128.935,191.945 128.400,187.647 128.400 C 185.447 128.400,183.551 128.556,183.433 128.747 M218.400 128.745 C 218.400 129.247,222.409 129.638,224.547 129.345 C 225.556 129.207,226.285 128.938,226.167 128.747 C 225.888 128.295,218.400 128.293,218.400 128.745 M239.400 128.800 C 238.650 128.991,240.148 129.121,243.400 129.147 C 246.889 129.174,248.403 129.060,248.000 128.800 C 247.304 128.350,241.167 128.350,239.400 128.800 M145.033 129.547 C 144.915 129.738,145.627 130.005,146.616 130.140 C 148.754 130.433,153.200 130.030,153.200 129.543 C 153.200 129.092,145.311 129.096,145.033 129.547 M160.400 129.541 C 160.400 129.960,165.314 130.400,170.000 130.400 C 171.914 130.400,174.856 130.284,176.540 130.141 C 182.506 129.637,179.470 129.200,170.000 129.200 C 164.720 129.200,160.400 129.354,160.400 129.541 M264.653 129.686 C 264.760 129.859,266.107 130.000,267.647 130.000 C 269.522 130.000,270.360 129.860,270.185 129.575 C 270.029 129.323,268.808 129.195,267.191 129.261 C 265.689 129.323,264.547 129.514,264.653 129.686 M274.800 129.533 C 274.800 129.865,281.398 136.400,281.734 136.400 C 281.831 136.400,283.312 137.840,285.025 139.600 C 286.737 141.360,288.368 142.800,288.649 142.800 C 288.930 142.800,290.113 143.700,291.278 144.800 C 292.444 145.900,293.544 146.800,293.724 146.800 C 294.069 146.800,302.393 155.180,303.856 157.000 C 304.365 157.633,304.818 157.895,304.972 157.646 C 305.114 157.415,304.864 156.997,304.416 156.717 C 303.967 156.437,303.600 155.985,303.600 155.712 C 303.600 155.439,302.750 154.448,301.711 153.508 C 300.671 152.569,299.456 151.383,299.011 150.874 C 296.768 148.313,295.221 146.800,294.843 146.800 C 294.613 146.800,294.025 146.260,293.537 145.600 C 293.049 144.940,292.413 144.400,292.125 144.400 C 291.836 144.400,291.600 144.259,291.600 144.086 C 291.600 143.914,291.105 143.477,290.500 143.116 C 289.895 142.755,288.590 141.669,287.600 140.703 C 286.610 139.736,285.305 138.622,284.700 138.227 C 284.095 137.832,283.600 137.259,283.600 136.954 C 283.600 136.649,283.310 136.400,282.957 136.400 C 282.603 136.400,280.742 134.780,278.821 132.800 C 275.472 129.347,274.800 128.801,274.800 129.533 M96.607 130.389 C 96.288 130.905,99.698 130.976,116.924 130.811 C 117.542 130.805,117.943 130.631,117.815 130.425 C 117.486 129.893,96.935 129.858,96.607 130.389 M134.072 130.347 C 133.729 130.564,134.229 130.763,135.496 130.913 C 137.751 131.180,140.800 130.855,140.800 130.347 C 140.800 129.903,134.773 129.902,134.072 130.347 M94.000 147.862 L 94.000 160.124 95.000 161.436 C 97.141 164.243,102.400 169.044,102.400 168.191 C 102.400 168.047,100.690 166.218,98.600 164.128 L 94.800 160.328 94.800 147.964 C 94.800 139.988,94.658 135.600,94.400 135.600 C 94.142 135.600,94.000 139.954,94.000 147.862 M305.200 160.400 C 305.200 161.396,305.358 161.950,305.600 161.800 C 305.820 161.664,306.000 161.034,306.000 160.400 C 306.000 159.766,305.820 159.136,305.600 159.000 C 305.358 158.850,305.200 159.404,305.200 160.400 M306.053 173.000 C 306.026 175.973,306.138 177.205,306.400 176.800 C 306.849 176.106,306.849 171.563,306.400 169.800 C 306.200 169.015,306.080 170.121,306.053 173.000 M103.600 169.418 C 103.600 169.801,105.548 171.600,105.962 171.600 C 106.181 171.600,106.522 171.888,106.719 172.241 C 106.923 172.606,107.406 172.805,107.839 172.704 C 108.514 172.546,108.487 172.477,107.600 172.091 C 107.050 171.851,106.025 171.103,105.322 170.428 C 104.089 169.244,103.600 168.957,103.600 169.418 M94.267 172.667 C 93.841 173.093,93.959 176.400,94.400 176.400 C 94.620 176.400,94.803 175.995,94.806 175.500 C 94.817 173.876,95.291 173.640,98.781 173.518 C 101.021 173.439,102.191 173.234,102.301 172.900 C 102.480 172.361,94.796 172.138,94.267 172.667 M305.200 186.000 C 305.200 186.996,305.358 187.550,305.600 187.400 C 305.820 187.264,306.000 186.634,306.000 186.000 C 306.000 185.366,305.820 184.736,305.600 184.600 C 305.358 184.450,305.200 185.004,305.200 186.000 M93.500 185.950 C 92.979 188.294,93.139 201.501,93.700 202.505 C 94.811 204.493,104.800 213.977,104.800 213.045 C 104.800 212.601,100.296 208.326,99.162 207.692 C 98.437 207.287,97.510 206.336,97.102 205.578 C 96.695 204.820,95.833 203.740,95.188 203.178 L 94.016 202.155 93.908 193.378 C 93.845 188.274,93.674 185.165,93.500 185.950 M304.060 189.042 C 303.331 189.866,303.800 190.257,304.581 189.476 C 304.921 189.136,305.200 188.754,305.200 188.629 C 305.200 188.209,304.606 188.424,304.060 189.042 M300.800 190.400 C 300.800 190.620,301.149 190.800,301.576 190.800 C 302.003 190.800,302.464 190.620,302.600 190.400 C 302.740 190.173,302.404 190.000,301.824 190.000 C 301.261 190.000,300.800 190.180,300.800 190.400 M295.200 191.055 C 295.200 191.588,300.591 197.304,301.474 197.706 C 303.753 198.745,302.556 199.326,298.900 198.955 C 295.265 198.586,256.837 198.519,223.200 198.822 C 212.530 198.918,189.721 198.836,172.513 198.639 C 133.857 198.196,130.484 198.423,129.592 201.529 C 128.521 205.259,128.518 225.583,129.589 229.560 C 130.460 232.795,130.013 232.779,220.400 232.677 C 270.825 232.620,296.466 232.727,296.996 232.996 C 297.433 233.218,298.084 233.715,298.443 234.100 C 298.801 234.485,299.236 234.800,299.409 234.800 C 299.582 234.800,299.398 234.440,299.000 234.000 C 298.289 233.214,298.301 233.200,299.714 233.200 C 300.506 233.200,301.264 233.020,301.400 232.800 C 301.536 232.580,302.021 232.400,302.477 232.400 C 304.416 232.400,305.817 228.707,305.247 225.100 C 305.221 224.935,305.385 224.800,305.612 224.800 C 306.144 224.800,306.106 205.713,305.574 205.384 C 305.368 205.257,305.200 204.083,305.200 202.776 C 305.200 201.459,305.022 200.400,304.800 200.400 C 304.580 200.400,304.400 200.098,304.400 199.730 C 304.400 199.361,302.996 197.696,301.281 196.030 C 299.565 194.363,298.041 192.685,297.893 192.300 C 297.746 191.915,297.339 191.600,296.989 191.600 C 296.639 191.600,296.464 191.420,296.600 191.200 C 296.736 190.980,296.477 190.800,296.024 190.800 C 295.571 190.800,295.200 190.915,295.200 191.055 M214.800 202.116 C 217.550 202.115,233.618 201.973,250.506 201.800 C 286.408 201.433,288.075 201.526,289.095 203.965 C 289.978 206.075,289.984 225.149,289.102 227.235 C 287.889 230.104,280.942 230.664,252.800 230.162 C 227.524 229.710,208.391 229.713,181.798 230.170 C 154.909 230.633,145.549 230.044,144.441 227.820 C 142.824 224.577,143.000 204.974,144.662 203.200 C 146.025 201.745,148.881 201.638,179.800 201.881 C 196.300 202.011,212.050 202.116,214.800 202.116 M95.011 213.523 C 94.895 213.639,94.800 214.009,94.800 214.347 C 94.800 214.824,94.907 214.853,95.280 214.480 C 95.572 214.188,96.992 214.000,98.904 214.000 C 100.997 214.000,101.961 213.860,101.788 213.580 C 101.528 213.160,95.425 213.108,95.011 213.523 M94.267 219.067 C 93.819 219.514,93.950 243.600,94.400 243.600 C 94.658 243.600,94.800 239.200,94.800 231.200 C 94.800 224.380,94.740 218.800,94.667 218.800 C 94.593 218.800,94.413 218.920,94.267 219.067 M301.200 236.543 C 301.200 236.956,303.212 238.922,303.420 238.713 C 303.514 238.619,303.054 238.026,302.396 237.396 C 301.738 236.766,301.200 236.382,301.200 236.543 M305.200 242.800 C 305.200 243.547,305.307 243.653,305.680 243.280 C 306.053 242.907,306.053 242.693,305.680 242.320 C 305.307 241.947,305.200 242.053,305.200 242.800 M95.338 244.988 C 95.592 245.532,96.788 246.837,97.995 247.888 C 99.202 248.940,100.919 250.565,101.811 251.500 C 103.366 253.130,104.400 253.649,104.400 252.800 C 104.400 252.580,104.197 252.400,103.949 252.400 C 103.701 252.400,101.633 250.510,99.354 248.200 C 94.909 243.695,94.627 243.470,95.338 244.988 M306.093 250.800 C 306.093 251.570,306.175 251.885,306.276 251.500 C 306.376 251.115,306.376 250.485,306.276 250.100 C 306.175 249.715,306.093 250.030,306.093 250.800 M306.012 256.633 C 306.021 259.936,306.129 260.820,306.453 260.262 C 306.899 259.495,306.737 253.004,306.260 252.527 C 306.117 252.384,306.005 254.232,306.012 256.633 M104.400 253.557 C 104.400 254.001,105.631 254.503,105.946 254.188 C 106.073 254.061,105.912 253.789,105.588 253.584 C 104.840 253.111,104.400 253.101,104.400 253.557 M98.822 253.899 C 94.776 254.042,94.000 254.355,94.000 255.849 C 94.000 257.057,94.702 257.098,94.872 255.900 C 94.993 255.049,95.206 254.994,98.755 254.884 C 101.236 254.808,102.793 254.570,103.344 254.184 C 104.146 253.623,104.148 253.603,103.389 253.683 C 102.955 253.729,100.900 253.826,98.822 253.899 M93.223 274.376 C 93.178 280.924,93.295 283.381,93.682 284.056 C 94.498 285.480,95.947 286.987,96.229 286.705 C 96.370 286.564,95.927 285.852,95.245 285.124 L 94.004 283.800 94.002 274.700 C 94.001 269.610,93.842 265.600,93.642 265.600 C 93.444 265.600,93.257 269.520,93.223 274.376 M305.200 269.424 C 305.200 270.004,305.373 270.340,305.600 270.200 C 305.820 270.064,306.000 269.603,306.000 269.176 C 306.000 268.749,305.820 268.400,305.600 268.400 C 305.380 268.400,305.200 268.861,305.200 269.424 M300.800 273.600 C 300.800 273.820,301.059 274.000,301.376 274.000 C 301.693 274.000,302.064 273.820,302.200 273.600 C 302.336 273.380,302.077 273.200,301.624 273.200 C 301.171 273.200,300.800 273.380,300.800 273.600 M297.200 274.369 C 297.200 274.917,299.167 277.154,300.077 277.641 C 301.551 278.430,301.285 277.664,299.449 275.828 C 297.586 273.965,297.200 273.715,297.200 274.369 M302.615 279.975 C 302.488 280.182,302.663 280.507,303.004 280.698 C 303.346 280.890,303.721 281.756,303.839 282.623 C 304.201 285.304,304.401 286.000,304.808 286.000 C 305.533 286.000,305.222 282.651,304.400 281.600 C 303.970 281.050,303.614 280.375,303.609 280.100 C 303.598 279.514,302.950 279.433,302.615 279.975 M96.400 287.500 C 96.400 287.665,97.030 288.303,97.800 288.917 C 99.494 290.268,99.660 289.832,98.036 288.299 C 96.852 287.182,96.400 286.961,96.400 287.500 M305.062 289.469 C 304.731 291.473,304.727 302.733,305.056 304.382 C 305.627 307.235,305.988 304.298,305.988 296.800 C 305.988 289.229,305.604 286.189,305.062 289.469 M99.600 290.211 C 99.600 290.441,102.609 293.470,103.712 294.349 C 105.144 295.491,104.350 293.986,102.744 292.516 C 101.834 291.682,100.857 290.775,100.573 290.500 C 100.035 289.979,99.600 289.849,99.600 290.211 M105.200 295.018 C 105.200 295.411,107.153 297.200,107.582 297.200 C 108.357 297.200,108.008 296.460,106.838 295.627 C 105.665 294.792,105.200 294.619,105.200 295.018 M108.400 297.338 C 108.400 297.566,112.766 302.000,112.991 302.000 C 113.589 302.000,112.995 301.101,111.178 299.254 C 109.460 297.509,108.400 296.778,108.400 297.338 M114.000 303.013 C 114.000 303.292,116.708 306.000,116.987 306.000 C 117.572 306.000,117.065 304.995,115.958 303.960 C 114.810 302.888,114.000 302.497,114.000 303.013 M118.083 307.349 C 119.156 308.391,120.000 308.707,120.000 308.068 C 120.000 307.784,118.881 307.096,117.400 306.468 C 117.180 306.375,117.487 306.772,118.083 307.349 M304.164 309.000 C 303.853 310.242,304.287 312.117,304.812 311.793 C 305.321 311.478,305.317 308.000,304.808 308.000 C 304.592 308.000,304.302 308.450,304.164 309.000 M120.400 308.800 C 120.400 309.020,120.670 309.200,121.000 309.200 C 121.330 309.200,121.600 309.020,121.600 308.800 C 121.600 308.580,121.330 308.400,121.000 308.400 C 120.670 308.400,120.400 308.580,120.400 308.800 M122.000 309.429 C 122.000 309.821,123.122 310.800,123.571 310.800 C 124.207 310.800,124.092 310.358,123.300 309.757 C 122.556 309.192,122.000 309.052,122.000 309.429 M124.400 311.092 C 124.400 311.534,127.453 313.200,128.261 313.200 C 128.584 313.200,128.736 313.020,128.600 312.800 C 128.464 312.580,128.003 312.400,127.576 312.400 C 127.149 312.400,126.800 312.241,126.800 312.047 C 126.800 311.852,126.485 311.582,126.100 311.446 C 125.715 311.311,125.175 311.095,124.900 310.966 C 124.625 310.838,124.400 310.895,124.400 311.092 M302.500 312.812 C 301.371 313.266,301.327 314.000,302.429 314.000 C 303.194 314.000,304.400 313.161,304.400 312.629 C 304.400 312.306,303.557 312.388,302.500 312.812 M129.698 313.061 C 128.911 313.385,129.539 314.000,130.657 314.000 C 131.287 314.000,131.604 313.812,131.500 313.500 C 131.316 312.947,130.473 312.742,129.698 313.061 M132.667 313.867 C 132.016 314.517,132.541 314.800,134.400 314.800 C 136.355 314.800,137.030 314.327,135.767 313.843 C 134.923 313.519,133.000 313.533,132.667 313.867 M297.100 313.876 C 296.715 313.976,296.400 314.225,296.400 314.429 C 296.400 314.905,300.280 314.917,300.574 314.442 C 301.003 313.748,298.900 313.405,297.100 313.876 M213.200 314.400 C 213.200 314.649,215.533 314.800,219.400 314.800 C 223.267 314.800,225.600 314.649,225.600 314.400 C 225.600 314.151,223.267 314.000,219.400 314.000 C 215.533 314.000,213.200 314.151,213.200 314.400 M140.494 314.721 C 139.996 314.796,139.691 315.024,139.818 315.229 C 140.084 315.659,196.337 315.659,198.200 315.228 C 201.189 314.536,145.000 314.043,140.494 314.721 M236.200 314.746 C 229.399 315.226,234.313 315.589,247.700 315.595 C 256.170 315.598,260.800 315.459,260.800 315.200 C 260.800 314.972,259.621 314.800,258.064 314.800 C 256.560 314.800,251.835 314.731,247.564 314.646 C 243.294 314.561,238.180 314.606,236.200 314.746 M271.100 314.700 C 265.494 314.771,262.000 314.966,262.000 315.208 C 262.000 315.706,294.262 315.747,294.570 315.249 C 294.954 314.627,292.440 314.398,286.250 314.492 C 282.923 314.543,276.105 314.636,271.100 314.700 " stroke="none" fill="#84cac0" fill-rule="evenodd"></path><path id="path1" d="M95.330 132.500 C 95.116 132.791,95.029 138.711,95.121 146.669 L 95.279 160.338 98.604 163.769 C 100.432 165.656,102.081 167.200,102.267 167.200 C 102.453 167.200,103.603 168.166,104.822 169.348 C 106.042 170.529,107.395 171.608,107.830 171.746 C 108.265 171.884,110.776 174.268,113.410 177.043 C 118.094 181.977,122.645 185.504,127.484 187.949 C 129.871 189.155,129.905 189.117,129.341 185.900 C 128.633 181.868,128.652 164.316,129.368 160.612 C 129.885 157.942,129.843 156.800,129.230 156.800 C 129.073 156.800,128.238 156.165,127.373 155.389 C 126.508 154.612,124.990 153.500,124.000 152.916 C 121.860 151.654,119.716 150.126,117.684 148.414 C 114.974 146.131,111.416 143.354,110.200 142.573 C 109.540 142.149,107.560 140.719,105.800 139.395 C 104.040 138.070,102.150 136.699,101.600 136.347 C 101.050 135.996,99.674 134.874,98.541 133.854 C 96.357 131.887,95.917 131.702,95.330 132.500 M153.067 156.267 C 152.920 156.413,152.800 164.333,152.800 173.867 L 152.800 191.200 159.600 191.200 L 166.400 191.200 166.400 173.600 L 166.400 156.000 159.867 156.000 C 156.273 156.000,153.213 156.120,153.067 156.267 M263.843 156.633 C 263.709 156.981,263.600 164.901,263.600 174.233 L 263.600 191.200 268.000 191.200 L 272.400 191.200 272.400 174.233 C 272.400 153.958,272.893 156.000,268.000 156.000 C 264.800 156.000,264.041 156.115,263.843 156.633 M279.908 173.600 L 279.800 191.200 283.743 191.200 C 287.174 191.200,287.654 191.118,287.443 190.567 C 287.309 190.219,287.200 182.299,287.200 172.967 L 287.200 156.000 283.608 156.000 L 280.016 156.000 279.908 173.600 M95.439 174.443 C 95.341 174.750,95.180 175.982,95.081 177.183 C 94.982 178.384,94.702 179.433,94.459 179.514 C 94.142 179.619,94.081 182.859,94.242 190.895 L 94.468 202.128 95.934 203.581 C 96.740 204.379,97.592 205.374,97.827 205.790 C 98.061 206.206,98.592 206.739,99.005 206.973 C 99.418 207.208,100.766 208.390,101.999 209.600 C 103.232 210.810,104.681 212.053,105.220 212.363 C 106.906 213.331,109.479 215.622,114.930 221.004 C 118.771 224.798,120.905 226.577,122.800 227.568 C 124.230 228.316,126.206 229.428,127.191 230.040 C 129.384 231.402,129.218 231.839,128.573 226.400 C 127.668 218.773,127.857 207.986,129.011 201.302 C 129.241 199.970,126.751 196.800,125.475 196.800 C 125.204 196.800,124.328 196.261,123.528 195.601 C 122.728 194.942,121.150 193.794,120.020 193.050 C 118.891 192.307,117.299 191.086,116.483 190.338 C 115.668 189.589,114.370 188.535,113.600 187.994 C 112.830 187.454,111.930 186.791,111.600 186.522 C 111.270 186.253,109.740 185.135,108.200 184.038 C 102.335 179.861,98.578 176.945,97.125 175.443 C 96.082 174.366,95.563 174.058,95.439 174.443 M95.400 215.832 C 94.488 216.215,95.185 242.854,96.142 244.200 C 97.033 245.453,103.616 251.999,103.987 252.001 C 104.104 252.001,104.830 252.545,105.600 253.208 C 107.574 254.909,106.869 255.187,100.556 255.194 L 95.312 255.200 95.075 257.494 C 94.945 258.755,94.656 259.848,94.433 259.922 C 94.163 260.012,94.111 264.024,94.279 271.892 L 94.531 283.727 95.566 284.901 C 96.134 285.546,97.384 286.822,98.342 287.737 C 99.299 288.652,101.255 290.525,102.688 291.900 C 104.121 293.275,105.470 294.400,105.686 294.400 C 105.902 294.400,106.583 294.940,107.200 295.600 C 107.817 296.260,108.534 296.800,108.795 296.800 C 109.055 296.800,111.548 299.105,114.334 301.923 C 117.120 304.740,120.034 307.339,120.810 307.699 C 121.585 308.058,122.755 308.813,123.410 309.375 C 124.064 309.938,124.825 310.399,125.100 310.400 C 125.375 310.400,125.600 310.580,125.600 310.800 C 125.600 311.020,125.960 311.200,126.400 311.200 C 126.840 311.200,127.200 311.380,127.200 311.600 C 127.200 311.820,127.650 312.000,128.200 312.000 C 128.750 312.000,129.200 312.194,129.200 312.432 C 129.200 312.700,129.639 312.767,130.362 312.608 C 131.104 312.445,131.703 312.544,132.018 312.882 C 132.319 313.204,133.119 313.353,134.065 313.262 C 136.304 313.049,138.400 313.520,138.400 314.236 C 138.400 314.719,138.692 314.774,139.900 314.518 C 141.962 314.081,192.951 314.115,199.470 314.558 C 204.004 314.866,204.827 314.831,205.356 314.301 C 206.694 312.963,228.491 312.834,229.952 314.156 C 230.515 314.667,231.553 314.710,236.808 314.444 C 240.214 314.271,254.565 314.146,268.699 314.165 C 284.850 314.187,294.447 314.057,294.528 313.815 C 294.599 313.603,295.994 313.423,297.628 313.415 C 299.438 313.406,300.807 313.204,301.129 312.900 C 301.419 312.625,301.994 312.400,302.405 312.400 C 303.402 312.400,303.788 311.689,303.651 310.102 C 303.484 308.162,303.971 306.400,304.675 306.400 C 305.109 306.400,305.195 306.197,304.974 305.700 C 304.495 304.626,304.292 292.495,304.709 289.900 C 304.991 288.145,304.962 287.600,304.586 287.600 C 303.993 287.600,303.613 286.330,303.605 284.324 C 303.602 283.512,303.408 282.728,303.173 282.583 C 302.938 282.438,302.847 282.055,302.971 281.732 C 303.115 281.356,302.071 280.038,300.060 278.059 C 298.336 276.362,296.835 274.710,296.726 274.387 C 296.567 273.917,295.618 273.800,291.964 273.800 L 287.400 273.800 287.200 256.600 L 287.000 239.400 280.600 239.400 L 274.200 239.400 274.000 256.800 L 273.800 274.200 263.200 274.122 C 257.370 274.079,235.500 273.989,214.600 273.922 L 176.600 273.800 176.496 256.700 L 176.391 239.600 173.596 239.522 C 172.058 239.479,170.215 239.434,169.500 239.422 L 168.200 239.400 168.000 256.800 L 167.800 274.200 164.000 274.200 L 160.200 274.200 160.000 256.800 L 159.800 239.400 156.400 239.400 L 153.000 239.400 152.896 256.674 C 152.793 273.728,152.781 273.952,151.966 274.211 C 150.974 274.526,137.585 273.741,134.200 273.170 C 130.039 272.467,129.755 272.261,129.221 269.543 C 128.543 266.097,128.522 246.474,129.194 243.537 L 129.711 241.273 127.955 239.598 C 126.990 238.676,125.544 237.585,124.742 237.174 C 123.940 236.763,123.040 236.186,122.742 235.891 C 122.444 235.597,121.120 234.613,119.800 233.706 C 118.480 232.798,116.770 231.496,116.000 230.813 C 115.230 230.130,113.880 229.030,113.000 228.368 C 108.429 224.930,105.427 222.800,105.154 222.800 C 104.986 222.800,104.057 222.125,103.089 221.300 C 102.121 220.475,100.626 219.260,99.768 218.600 C 98.909 217.940,97.791 216.995,97.285 216.500 C 96.361 215.597,96.141 215.519,95.400 215.832 " stroke="none" fill="#e6e1e4" fill-rule="evenodd"></path><path id="path2" d="M197.800 128.000 C 197.508 128.473,197.899 128.473,199.000 128.000 C 199.771 127.669,199.769 127.655,198.924 127.628 C 198.442 127.613,197.936 127.780,197.800 128.000 M238.245 128.728 C 238.133 128.908,238.573 128.977,239.221 128.882 C 239.870 128.787,240.400 128.640,240.400 128.555 C 240.400 128.250,238.443 128.407,238.245 128.728 M303.855 157.800 C 304.117 158.481,305.200 158.623,305.200 157.976 C 305.200 157.743,305.020 157.664,304.800 157.800 C 304.580 157.936,304.400 157.857,304.400 157.624 C 304.400 157.391,304.226 157.200,304.013 157.200 C 303.799 157.200,303.729 157.470,303.855 157.800 M304.864 161.467 C 304.829 162.604,304.909 163.819,305.043 164.167 C 305.492 165.338,306.000 164.813,306.000 163.176 C 306.000 162.271,305.835 161.655,305.626 161.784 C 305.420 161.911,305.179 161.427,305.090 160.708 C 304.976 159.786,304.909 160.010,304.864 161.467 M306.315 169.600 C 306.412 170.260,306.560 170.800,306.645 170.800 C 306.730 170.800,306.800 170.260,306.800 169.600 C 306.800 168.940,306.651 168.400,306.469 168.400 C 306.287 168.400,306.218 168.940,306.315 169.600 M305.720 173.600 C 305.720 174.810,305.795 175.305,305.887 174.700 C 305.978 174.095,305.978 173.105,305.887 172.500 C 305.795 171.895,305.720 172.390,305.720 173.600 M305.043 182.233 C 304.909 182.581,304.830 183.886,304.867 185.133 C 304.918 186.858,304.972 187.040,305.092 185.892 C 305.178 185.062,305.418 184.488,305.625 184.615 C 305.835 184.745,306.000 184.133,306.000 183.224 C 306.000 181.587,305.492 181.062,305.043 182.233 M303.658 188.607 C 302.976 189.326,302.295 189.600,301.191 189.600 C 300.352 189.600,299.381 189.709,299.033 189.843 C 297.988 190.244,298.318 190.800,299.600 190.800 C 300.260 190.800,300.800 190.620,300.800 190.400 C 300.800 190.180,301.348 190.000,302.018 190.000 C 303.083 190.000,305.200 188.548,305.200 187.818 C 305.200 187.335,304.549 187.668,303.658 188.607 M302.602 197.202 C 303.002 197.644,303.411 197.922,303.512 197.821 C 303.728 197.605,302.588 196.400,302.167 196.400 C 302.007 196.400,302.203 196.761,302.602 197.202 M96.400 206.143 C 96.400 206.556,98.412 208.522,98.620 208.313 C 98.714 208.219,98.254 207.626,97.596 206.996 C 96.938 206.366,96.400 205.982,96.400 206.143 M102.693 213.122 C 102.084 213.195,101.690 213.422,101.817 213.627 C 101.952 213.846,100.674 214.003,98.724 214.006 C 96.430 214.010,95.586 214.132,96.000 214.400 C 97.004 215.049,106.800 214.912,106.800 214.249 C 106.800 213.609,104.316 212.928,102.693 213.122 M296.400 233.576 C 296.400 234.449,299.305 237.540,300.903 238.368 C 302.337 239.110,302.296 239.600,300.800 239.600 C 300.140 239.600,299.600 239.420,299.600 239.200 C 299.600 238.951,297.332 238.800,293.596 238.800 L 287.592 238.800 287.696 256.100 L 287.800 273.400 294.200 273.692 C 298.292 273.879,300.648 273.843,300.733 273.592 C 300.807 273.376,301.222 273.200,301.657 273.200 C 302.092 273.200,302.336 273.380,302.200 273.600 C 302.064 273.820,302.143 274.000,302.376 274.000 C 302.609 274.000,302.800 273.820,302.800 273.600 C 302.800 273.380,303.340 273.200,304.000 273.200 C 305.067 273.200,305.200 273.067,305.200 272.000 C 305.200 271.340,305.380 270.800,305.600 270.800 C 305.820 270.800,306.000 270.609,306.000 270.376 C 306.000 270.143,305.820 270.064,305.600 270.200 C 305.373 270.340,305.200 270.004,305.200 269.424 C 305.200 268.861,305.380 268.400,305.600 268.400 C 305.835 268.400,306.000 267.008,306.000 265.024 C 306.000 263.167,306.180 261.536,306.400 261.400 C 306.620 261.264,306.797 260.848,306.794 260.476 C 306.789 259.893,306.734 259.883,306.400 260.400 C 306.137 260.807,306.012 259.587,306.012 256.600 C 306.012 253.613,306.137 252.393,306.400 252.800 C 306.712 253.283,306.789 253.219,306.794 252.476 C 306.797 251.961,306.623 251.662,306.400 251.800 C 306.142 251.959,306.000 250.463,306.000 247.600 C 306.000 244.737,305.858 243.241,305.600 243.400 C 305.358 243.549,305.200 243.004,305.200 242.024 C 305.200 241.131,305.020 240.400,304.800 240.400 C 304.580 240.400,304.400 240.040,304.400 239.600 C 304.400 239.145,304.133 238.800,303.782 238.800 C 303.070 238.800,301.200 237.054,301.200 236.390 C 301.200 235.797,300.181 234.800,299.575 234.800 C 299.311 234.800,298.803 234.473,298.447 234.072 C 297.435 232.933,296.400 232.683,296.400 233.576 M135.600 239.200 C 135.600 239.421,134.555 239.600,133.264 239.600 C 131.105 239.600,130.890 239.683,130.426 240.700 C 128.710 244.452,128.365 261.485,129.825 270.318 C 130.191 272.532,135.394 273.579,146.100 273.592 L 152.400 273.600 152.400 256.200 L 152.400 238.800 144.000 238.800 C 138.667 238.800,135.600 238.946,135.600 239.200 M160.800 256.416 L 160.800 274.032 164.100 273.916 L 167.400 273.800 167.504 256.300 L 167.608 238.800 164.204 238.800 L 160.800 238.800 160.800 256.416 M176.896 256.100 L 177.000 273.400 217.800 273.560 C 240.240 273.648,261.930 273.738,266.000 273.760 L 273.400 273.800 273.504 256.300 L 273.608 238.800 253.804 238.800 C 240.868 238.800,234.000 238.939,234.000 239.200 C 234.000 239.460,228.000 239.600,216.800 239.600 C 205.600 239.600,199.600 239.460,199.600 239.200 C 199.600 238.943,195.532 238.800,188.196 238.800 L 176.792 238.800 176.896 256.100 M94.493 244.400 C 94.768 244.840,95.131 245.200,95.300 245.200 C 95.469 245.200,95.382 244.840,95.107 244.400 C 94.832 243.960,94.469 243.600,94.300 243.600 C 94.131 243.600,94.218 243.960,94.493 244.400 M100.400 250.167 C 100.400 250.588,101.605 251.728,101.821 251.512 C 101.922 251.411,101.644 251.002,101.202 250.602 C 100.761 250.203,100.400 250.007,100.400 250.167 " stroke="none" fill="#eb8c75" fill-rule="evenodd"></path><path id="path3" d="M94.800 131.849 C 94.800 132.717,94.900 132.815,95.376 132.420 C 95.693 132.157,95.854 131.685,95.733 131.371 C 95.373 130.431,94.800 130.725,94.800 131.849 M94.894 148.318 L 94.800 160.436 95.800 161.436 C 96.350 161.986,96.800 162.276,96.800 162.080 C 96.800 161.884,96.443 161.401,96.006 161.005 C 95.252 160.323,95.206 159.673,95.100 148.243 L 94.988 136.200 94.894 148.318 M101.704 167.416 C 102.307 167.975,102.800 168.605,102.800 168.816 C 102.800 169.027,103.082 169.200,103.427 169.200 C 103.771 169.200,104.716 169.828,105.527 170.597 C 106.337 171.365,107.214 171.995,107.476 171.997 C 107.738 171.998,108.058 172.170,108.186 172.378 C 108.329 172.609,107.314 172.662,105.560 172.515 C 103.153 172.314,102.643 172.380,102.331 172.938 C 102.032 173.472,101.313 173.600,98.623 173.600 C 95.119 173.600,94.800 173.770,94.800 175.633 C 94.800 176.055,94.620 176.400,94.400 176.400 C 94.180 176.400,94.000 177.120,94.000 178.000 C 94.000 178.880,94.159 179.600,94.353 179.600 C 94.832 179.600,95.188 178.146,95.195 176.167 C 95.202 173.891,95.515 173.786,97.179 175.503 C 98.584 176.952,102.399 179.906,108.200 184.038 C 109.740 185.135,111.270 186.253,111.600 186.522 C 111.930 186.791,112.830 187.454,113.600 187.994 C 114.370 188.535,115.668 189.589,116.483 190.338 C 117.299 191.086,118.891 192.307,120.020 193.050 C 121.150 193.794,122.728 194.942,123.528 195.601 C 124.328 196.261,125.204 196.800,125.475 196.800 C 126.751 196.800,129.241 199.970,129.011 201.302 C 127.860 207.968,127.668 218.751,128.566 226.370 C 129.132 231.181,129.563 232.038,131.376 231.968 C 132.051 231.943,132.003 231.865,131.107 231.537 C 129.559 230.972,129.214 229.288,128.874 220.633 C 128.566 212.797,128.899 203.943,129.592 201.529 C 130.484 198.423,133.857 198.196,172.513 198.639 C 189.721 198.836,212.530 198.918,223.200 198.822 C 256.837 198.519,295.265 198.586,298.900 198.955 C 302.556 199.326,303.753 198.745,301.474 197.706 C 300.393 197.214,295.200 191.531,295.200 190.841 C 295.200 190.503,294.617 190.460,293.100 190.686 C 291.945 190.859,279.300 190.925,265.000 190.834 C 225.467 190.583,198.562 190.615,173.000 190.946 C 130.219 191.500,126.254 190.575,113.410 177.043 C 110.776 174.268,108.265 171.884,107.830 171.746 C 107.395 171.608,106.042 170.529,104.822 169.348 C 103.603 168.166,102.379 167.200,102.102 167.200 C 101.826 167.200,101.600 167.020,101.600 166.800 C 101.600 166.580,101.377 166.400,101.104 166.400 C 100.831 166.400,101.101 166.857,101.704 167.416 M94.165 194.600 C 94.166 198.560,94.226 200.126,94.298 198.080 C 94.371 196.034,94.371 192.794,94.298 190.880 C 94.224 188.966,94.165 190.640,94.165 194.600 M147.512 202.122 C 146.253 202.385,144.971 202.870,144.662 203.200 C 143.000 204.974,142.824 224.577,144.441 227.820 C 145.549 230.044,154.909 230.633,181.798 230.170 C 208.391 229.713,227.524 229.710,252.800 230.162 C 280.942 230.664,287.889 230.104,289.102 227.235 C 289.984 225.149,289.978 206.075,289.095 203.965 C 288.075 201.526,286.408 201.433,250.506 201.800 C 213.657 202.177,217.019 202.174,179.800 201.881 C 157.303 201.704,149.228 201.764,147.512 202.122 M96.429 204.271 C 96.548 205.602,99.198 208.252,100.529 208.371 C 100.950 208.408,99.993 207.528,99.010 206.973 C 98.594 206.739,98.061 206.206,97.827 205.790 C 97.272 204.807,96.392 203.850,96.429 204.271 M102.800 210.673 C 102.800 211.287,104.932 213.037,106.021 213.317 L 107.000 213.568 106.000 212.793 C 105.450 212.367,104.841 212.014,104.647 212.009 C 104.453 212.004,103.958 211.612,103.547 211.139 C 103.136 210.665,102.800 210.455,102.800 210.673 M94.972 214.928 C 94.652 215.763,95.052 216.308,95.590 215.770 C 95.817 215.543,95.823 215.161,95.605 214.808 C 95.298 214.311,95.202 214.330,94.972 214.928 M94.894 231.518 L 94.800 243.636 95.800 244.636 C 97.001 245.838,97.098 245.542,96.006 244.009 C 95.264 242.967,95.205 242.122,95.100 231.147 L 94.987 219.400 94.894 231.518 M133.400 232.380 C 134.582 232.701,141.891 232.942,141.567 232.650 C 141.475 232.567,139.330 232.399,136.800 232.277 C 134.158 232.149,132.711 232.193,133.400 232.380 M205.300 232.700 C 211.845 232.761,222.555 232.761,229.100 232.700 C 235.645 232.638,230.290 232.588,217.200 232.588 C 204.110 232.588,198.755 232.638,205.300 232.700 M293.107 232.690 C 293.826 232.779,294.906 232.777,295.507 232.686 C 296.108 232.595,295.520 232.522,294.200 232.524 C 292.880 232.526,292.388 232.601,293.107 232.690 M152.200 233.173 C 156.160 233.299,164.170 233.300,170.000 233.174 C 178.995 232.980,177.904 232.945,162.800 232.944 C 151.643 232.943,147.687 233.029,152.200 233.173 M261.502 233.279 C 267.848 233.485,275.620 233.484,280.102 233.277 C 286.867 232.964,285.546 232.922,269.200 232.923 L 250.600 232.925 261.502 233.279 M97.200 245.924 C 97.200 246.348,98.745 247.797,98.949 247.564 C 99.028 247.474,98.667 246.989,98.146 246.486 C 97.626 245.983,97.200 245.730,97.200 245.924 M101.349 250.200 C 102.502 251.410,103.661 252.400,103.923 252.400 C 104.185 252.400,104.400 252.561,104.400 252.757 C 104.400 252.954,104.670 253.218,105.000 253.345 C 106.030 253.740,105.655 252.964,104.527 252.368 C 103.938 252.055,102.653 250.945,101.673 249.900 C 100.693 248.855,99.747 248.000,99.571 248.000 C 99.396 248.000,100.196 248.990,101.349 250.200 M106.000 253.928 C 106.000 254.252,105.655 254.329,104.969 254.157 C 104.402 254.014,103.547 254.099,103.069 254.345 C 102.591 254.592,100.580 254.840,98.600 254.897 C 95.208 254.994,94.993 255.052,94.872 255.900 C 94.802 256.395,94.577 256.800,94.372 256.800 C 94.167 256.800,94.000 257.520,94.000 258.400 C 94.000 259.280,94.158 260.000,94.350 260.000 C 94.748 260.000,95.200 258.060,95.200 256.350 L 95.200 255.200 100.500 255.194 C 105.930 255.188,107.433 254.873,106.497 253.937 C 106.111 253.551,106.000 253.549,106.000 253.928 M94.093 275.400 L 94.004 283.800 95.202 285.078 C 95.861 285.781,96.400 286.449,96.400 286.563 C 96.400 286.856,99.608 289.996,99.932 290.020 C 100.079 290.030,100.920 290.749,101.800 291.617 C 102.680 292.484,103.547 293.196,103.727 293.197 C 104.027 293.200,103.319 292.481,98.344 287.737 C 97.385 286.822,96.109 285.518,95.508 284.839 L 94.416 283.604 94.300 275.302 L 94.183 267.000 94.093 275.400 M300.000 277.796 C 300.000 278.117,302.115 279.971,302.500 279.987 C 302.665 279.994,302.800 279.760,302.800 279.468 C 302.800 279.017,302.224 278.609,300.300 277.695 C 300.135 277.617,300.000 277.662,300.000 277.796 M302.669 280.825 C 302.927 281.085,303.049 281.527,302.941 281.808 C 302.834 282.089,302.938 282.438,303.173 282.583 C 303.408 282.728,303.602 283.512,303.605 284.324 C 303.613 286.390,303.998 287.600,304.647 287.600 C 305.380 287.600,305.353 286.496,304.600 285.743 C 304.270 285.413,303.998 284.571,303.995 283.871 C 303.986 281.990,303.604 280.887,302.861 280.604 C 302.354 280.411,302.309 280.463,302.669 280.825 M304.563 297.200 C 304.563 300.830,304.623 302.315,304.698 300.500 C 304.772 298.685,304.772 295.715,304.698 293.900 C 304.623 292.085,304.563 293.570,304.563 297.200 M104.255 294.200 C 104.382 294.530,104.816 294.800,105.219 294.800 C 105.623 294.800,106.064 294.980,106.200 295.200 C 106.336 295.420,106.629 295.600,106.852 295.600 C 107.343 295.600,106.495 294.785,105.290 294.100 C 104.152 293.453,103.975 293.470,104.255 294.200 M110.202 298.402 C 110.602 298.844,111.015 299.118,111.121 299.012 C 111.390 298.743,110.392 297.600,109.889 297.600 C 109.662 297.600,109.803 297.961,110.202 298.402 M112.400 300.164 C 112.400 300.851,113.738 302.587,114.622 303.045 C 116.171 303.849,116.091 303.632,114.127 301.709 C 113.177 300.779,112.400 300.084,112.400 300.164 M117.085 305.604 C 117.201 306.046,117.904 306.696,118.648 307.049 C 119.391 307.402,120.000 307.851,120.000 308.046 C 120.000 308.241,120.360 308.400,120.800 308.400 C 121.240 308.400,121.600 308.580,121.600 308.800 C 121.600 309.020,121.836 309.200,122.125 309.200 C 122.413 309.200,122.998 309.525,123.425 309.922 C 123.851 310.320,124.785 310.903,125.500 311.220 C 126.215 311.536,126.800 311.931,126.800 312.098 C 126.800 312.264,127.149 312.400,127.576 312.400 C 128.003 312.400,128.464 312.580,128.600 312.800 C 128.736 313.020,129.119 313.200,129.452 313.200 C 129.990 313.200,129.990 313.133,129.457 312.600 C 129.127 312.270,128.484 312.000,128.029 312.000 C 127.573 312.000,127.200 311.820,127.200 311.600 C 127.200 311.380,126.840 311.200,126.400 311.200 C 125.960 311.200,125.600 311.020,125.600 310.800 C 125.600 310.580,125.375 310.400,125.100 310.400 C 124.825 310.399,124.064 309.938,123.410 309.375 C 122.755 308.813,121.585 308.059,120.810 307.701 C 120.034 307.342,118.903 306.543,118.297 305.925 C 116.984 304.587,116.807 304.540,117.085 305.604 M303.801 307.596 C 303.656 308.254,303.589 309.382,303.651 310.102 C 303.788 311.689,303.402 312.400,302.405 312.400 C 301.994 312.400,301.419 312.625,301.129 312.900 C 300.808 313.203,299.449 313.405,297.677 313.413 C 296.062 313.421,294.630 313.618,294.477 313.853 C 294.325 314.088,293.930 314.383,293.600 314.508 C 293.270 314.634,293.750 314.751,294.667 314.768 C 295.668 314.787,296.400 314.601,296.501 314.300 C 296.613 313.966,297.481 313.814,299.113 313.844 C 300.749 313.873,301.622 313.720,301.752 313.381 C 301.859 313.103,302.493 312.755,303.161 312.608 C 304.332 312.351,304.368 312.280,304.144 310.644 C 303.971 309.382,304.077 308.780,304.556 308.302 C 305.352 307.505,305.397 306.400,304.632 306.400 C 304.319 306.400,303.945 306.938,303.801 307.596 M131.156 313.156 C 131.747 313.747,132.299 313.868,133.683 313.712 C 134.981 313.566,135.627 313.684,136.099 314.156 C 136.902 314.959,138.400 315.000,138.400 314.218 C 138.400 313.521,136.273 313.052,134.065 313.262 C 133.149 313.350,132.319 313.203,132.040 312.905 C 131.781 312.627,131.306 312.400,130.984 312.400 C 130.532 312.400,130.571 312.571,131.156 313.156 M209.800 313.456 C 203.793 313.772,203.334 314.800,209.200 314.800 C 211.600 314.800,213.200 314.640,213.200 314.400 C 213.200 314.151,215.533 314.000,219.400 314.000 C 223.267 314.000,225.600 314.151,225.600 314.400 C 225.600 314.624,226.695 314.800,228.086 314.800 C 230.425 314.800,230.531 314.760,229.891 314.120 C 229.201 313.430,217.596 313.046,209.800 313.456 M150.200 314.416 C 155.040 314.575,166.920 314.577,176.600 314.420 L 194.200 314.135 167.800 314.131 C 149.195 314.129,143.998 314.213,150.200 314.416 M242.515 314.296 C 243.788 314.376,245.768 314.375,246.915 314.294 C 248.062 314.214,247.020 314.149,244.600 314.150 C 242.180 314.151,241.242 314.216,242.515 314.296 M256.400 314.400 L 249.800 314.630 255.300 314.715 C 258.643 314.767,260.800 314.957,260.800 315.200 C 260.800 315.420,261.070 315.600,261.400 315.600 C 261.730 315.600,262.000 315.420,262.000 315.200 C 262.000 314.948,265.001 314.781,270.100 314.749 C 274.555 314.721,281.530 314.573,285.600 314.421 C 291.643 314.195,290.249 314.146,278.000 314.157 C 269.750 314.164,260.030 314.273,256.400 314.400 M195.705 314.687 C 196.314 314.779,197.214 314.777,197.705 314.682 C 198.197 314.587,197.700 314.511,196.600 314.514 C 195.500 314.517,195.097 314.595,195.705 314.687 M234.512 314.695 C 235.564 314.777,237.184 314.776,238.112 314.692 C 239.040 314.608,238.180 314.541,236.200 314.542 C 234.220 314.543,233.460 314.612,234.512 314.695 " stroke="none" fill="#abd3cb" fill-rule="evenodd"></path><path id="path4" d="M191.281 128.879 C 190.948 129.212,189.125 129.338,185.317 129.291 C 181.370 129.243,179.748 129.361,179.531 129.712 C 179.091 130.424,160.737 130.412,160.500 129.700 C 160.269 129.007,153.335 128.996,153.104 129.688 C 152.984 130.048,151.376 130.156,146.988 130.099 C 143.277 130.050,140.939 130.175,140.782 130.430 C 140.614 130.700,132.907 130.849,118.047 130.869 C 105.683 130.885,95.619 131.031,95.683 131.192 C 95.847 131.604,100.390 135.556,101.600 136.339 C 102.150 136.696,104.040 138.070,105.800 139.395 C 107.560 140.719,109.540 142.149,110.200 142.573 C 111.416 143.354,114.974 146.131,117.684 148.414 C 119.716 150.126,121.860 151.654,124.000 152.916 C 124.990 153.500,126.508 154.612,127.373 155.389 C 128.238 156.165,129.073 156.800,129.230 156.800 C 129.843 156.800,129.885 157.942,129.368 160.612 C 127.893 168.244,128.856 188.005,130.751 188.962 C 133.187 190.194,151.500 191.860,152.426 190.934 C 152.632 190.728,152.837 183.079,152.896 173.384 L 153.000 156.200 159.700 156.090 L 166.400 155.981 166.400 173.652 L 166.400 191.323 181.300 190.962 C 200.046 190.507,235.188 190.495,251.300 190.939 L 263.600 191.277 263.600 174.271 C 263.600 153.952,263.107 156.000,268.000 156.000 C 272.893 156.000,272.400 153.956,272.400 174.248 L 272.400 191.230 276.100 191.115 L 279.800 191.000 279.904 173.500 L 280.008 156.000 283.600 156.000 L 287.192 156.000 287.296 173.300 L 287.400 190.600 292.800 190.619 C 296.705 190.632,298.346 190.494,298.729 190.119 C 299.019 189.833,300.014 189.600,300.939 189.600 C 303.737 189.600,305.032 188.072,304.882 184.946 C 304.800 183.246,304.936 182.321,305.324 181.934 C 306.179 181.078,306.165 165.308,305.308 164.451 C 304.844 163.986,304.749 163.215,304.898 161.123 C 305.044 159.088,304.965 158.400,304.586 158.400 C 304.307 158.400,303.902 157.905,303.686 157.300 C 303.300 156.219,294.364 146.800,293.724 146.800 C 293.544 146.800,292.444 145.900,291.278 144.800 C 290.113 143.700,288.930 142.800,288.649 142.800 C 288.368 142.800,286.737 141.360,285.025 139.600 C 283.312 137.840,281.818 136.400,281.706 136.400 C 281.593 136.400,279.867 134.780,277.870 132.800 L 274.239 129.200 272.096 129.200 C 270.769 129.200,270.047 129.352,270.200 129.600 C 270.356 129.852,269.412 130.000,267.647 130.000 C 266.107 130.000,264.731 129.811,264.588 129.581 C 264.412 129.295,257.045 129.182,241.480 129.227 C 224.982 129.274,218.589 129.168,218.482 128.846 C 218.263 128.188,191.940 128.220,191.281 128.879 M106.800 214.211 C 106.800 214.785,106.153 214.845,101.199 214.730 C 98.119 214.659,95.599 214.691,95.599 214.803 C 95.600 215.066,97.809 217.072,99.781 218.600 C 100.632 219.260,102.121 220.475,103.089 221.300 C 104.057 222.125,104.986 222.800,105.154 222.800 C 105.427 222.800,108.429 224.930,113.000 228.368 C 113.880 229.030,115.230 230.130,116.000 230.813 C 116.770 231.496,118.480 232.798,119.800 233.706 C 121.120 234.613,122.444 235.597,122.742 235.891 C 123.040 236.186,123.940 236.763,124.742 237.174 C 125.544 237.585,126.992 238.678,127.959 239.601 L 129.719 241.281 129.259 243.271 C 129.007 244.366,128.820 246.372,128.843 247.731 C 128.883 249.985,128.931 249.835,129.401 246.000 C 130.138 239.977,130.366 239.600,133.264 239.600 C 134.555 239.600,135.600 239.421,135.600 239.200 C 135.600 238.946,138.667 238.800,144.000 238.800 L 152.400 238.800 152.400 256.200 L 152.400 273.600 146.700 273.658 L 141.000 273.715 145.975 274.082 C 148.711 274.284,151.364 274.345,151.870 274.218 L 152.792 273.987 152.896 256.693 L 153.000 239.400 156.400 239.400 L 159.800 239.400 160.000 256.800 L 160.200 274.200 164.000 274.200 L 167.800 274.200 168.000 256.800 L 168.200 239.400 169.500 239.422 C 170.215 239.434,172.058 239.479,173.596 239.522 L 176.391 239.600 176.496 256.700 L 176.600 273.800 186.400 273.815 L 196.200 273.829 186.600 273.615 L 177.000 273.400 176.896 256.100 L 176.792 238.800 188.196 238.800 C 195.532 238.800,199.600 238.943,199.600 239.200 C 199.600 239.460,205.600 239.600,216.800 239.600 C 228.000 239.600,234.000 239.460,234.000 239.200 C 234.000 238.939,240.868 238.800,253.804 238.800 L 273.608 238.800 273.504 256.300 L 273.400 273.800 256.200 273.733 C 239.414 273.668,239.241 273.675,249.000 274.030 C 254.500 274.231,262.330 274.351,266.400 274.297 L 273.800 274.200 274.000 256.800 L 274.200 239.400 280.600 239.400 L 287.000 239.400 287.200 256.600 L 287.400 273.800 290.400 273.839 L 293.400 273.878 290.600 273.639 L 287.800 273.400 287.696 256.100 L 287.592 238.800 293.596 238.800 C 297.332 238.800,299.600 238.951,299.600 239.200 C 299.600 239.420,300.140 239.600,300.800 239.600 C 302.296 239.600,302.337 239.110,300.903 238.368 C 299.258 237.516,296.400 234.438,296.400 233.519 C 296.400 232.722,296.276 232.716,287.300 233.055 C 282.295 233.245,275.050 233.378,271.200 233.351 C 267.350 233.324,247.190 233.176,226.400 233.023 C 205.610 232.869,182.120 232.905,174.200 233.103 C 144.891 233.836,132.479 233.017,127.200 230.004 C 125.330 228.936,122.990 227.648,122.000 227.140 C 120.998 226.626,117.973 223.996,115.177 221.208 C 109.249 215.298,106.800 213.252,106.800 214.211 M167.504 256.300 L 167.400 273.800 164.100 273.916 L 160.800 274.032 160.800 256.416 L 160.800 238.800 164.204 238.800 L 167.608 238.800 167.504 256.300 M128.531 254.600 C 128.533 256.140,128.605 256.721,128.692 255.891 C 128.779 255.061,128.777 253.801,128.689 253.091 C 128.600 252.381,128.529 253.060,128.531 254.600 M128.849 264.433 C 128.753 270.391,129.790 272.883,132.319 272.770 C 132.693 272.753,132.428 272.528,131.729 272.270 C 129.877 271.586,129.890 271.617,129.372 266.290 C 128.919 261.619,128.895 261.536,128.849 264.433 M134.200 273.179 C 135.416 273.510,139.073 273.726,138.767 273.449 C 138.675 273.366,137.340 273.198,135.800 273.075 C 134.034 272.935,133.443 272.973,134.200 273.179 M212.924 273.499 C 215.962 273.567,220.822 273.567,223.724 273.499 C 226.626 273.431,224.140 273.375,218.200 273.375 C 212.260 273.375,209.886 273.431,212.924 273.499 " stroke="none" fill="#fcc48c" fill-rule="evenodd"></path></g></svg>