<svg id="svg" version="1.1" xmlns="http://www.w3.org/2000/svg" xmlns:xlink="http://www.w3.org/1999/xlink" width="400" height="400" viewBox="0, 0, 400,400"><g id="svgg"><path id="path0" d="M134.000 105.600 C 134.000 105.820,133.730 106.000,133.400 106.000 C 133.070 106.000,132.800 106.282,132.800 106.627 C 132.800 107.072,132.568 107.180,132.000 107.000 C 131.423 106.817,131.200 106.928,131.200 107.400 C 131.200 107.872,130.977 107.983,130.400 107.800 C 129.860 107.629,129.600 107.728,129.600 108.105 C 129.600 108.413,129.154 108.904,128.608 109.196 C 127.844 109.605,127.670 109.941,127.852 110.663 C 128.021 111.337,127.916 111.600,127.481 111.600 C 126.986 111.600,126.914 112.022,127.085 113.912 C 127.392 117.289,127.617 117.213,117.056 117.292 C 110.126 117.344,107.978 117.480,107.827 117.873 C 107.719 118.156,107.353 118.280,107.015 118.150 C 106.677 118.021,106.400 118.114,106.400 118.357 C 106.400 118.601,106.059 118.800,105.643 118.800 C 105.226 118.800,104.787 119.056,104.667 119.369 C 104.534 119.717,104.129 119.854,103.624 119.722 C 103.171 119.604,102.800 119.687,102.800 119.907 C 102.800 120.127,102.422 120.406,101.960 120.526 C 101.475 120.653,101.236 120.934,101.394 121.191 C 101.775 121.806,100.866 122.800,99.922 122.800 C 98.983 122.800,98.000 123.706,98.000 124.571 C 98.000 124.917,97.820 125.200,97.600 125.200 C 97.380 125.200,97.200 125.680,97.200 126.267 C 97.200 126.853,97.089 127.222,96.952 127.086 C 96.666 126.799,96.027 127.435,95.270 128.757 C 94.979 129.267,94.934 129.564,95.170 129.418 C 95.407 129.272,95.600 129.343,95.600 129.576 C 95.600 129.809,95.420 130.000,95.200 130.000 C 94.980 130.000,94.800 130.525,94.800 131.167 C 94.800 131.808,94.614 132.395,94.386 132.471 C 94.105 132.565,94.073 135.052,94.286 140.205 L 94.600 147.800 200.058 147.901 L 305.517 148.001 305.671 139.901 C 305.793 133.480,305.715 131.732,305.295 131.470 C 304.989 131.280,304.868 130.815,305.009 130.370 C 305.147 129.938,305.066 129.600,304.827 129.600 C 304.592 129.600,304.400 129.259,304.400 128.843 C 304.400 128.426,304.133 127.983,303.807 127.858 C 303.480 127.733,303.311 127.377,303.430 127.067 C 303.549 126.757,303.369 126.397,303.030 126.267 C 302.685 126.135,302.514 125.769,302.641 125.436 C 302.914 124.726,300.329 122.000,299.383 122.000 C 298.813 122.000,298.168 121.422,295.696 118.700 C 295.346 118.315,294.867 118.003,294.630 118.006 C 294.394 118.009,294.470 118.187,294.800 118.400 C 295.313 118.731,295.298 118.789,294.700 118.794 C 294.315 118.797,294.000 118.620,294.000 118.400 C 294.000 118.180,293.550 118.000,293.000 118.000 C 292.450 118.000,292.000 117.811,292.000 117.581 C 292.000 117.319,290.986 117.204,289.300 117.274 C 287.815 117.336,284.786 117.345,282.569 117.293 L 278.539 117.200 278.723 115.946 C 278.854 115.054,278.714 114.584,278.240 114.319 C 277.731 114.033,277.634 113.623,277.831 112.573 C 278.042 111.452,277.966 111.200,277.418 111.200 C 276.928 111.200,276.815 110.983,277.000 110.400 C 277.152 109.920,277.072 109.600,276.798 109.600 C 276.203 109.600,275.200 108.587,275.200 107.986 C 275.200 107.726,274.924 107.620,274.585 107.750 C 274.229 107.887,273.870 107.726,273.733 107.370 C 273.603 107.031,273.243 106.851,272.933 106.970 C 272.623 107.089,272.267 106.920,272.142 106.593 C 272.017 106.267,271.664 106.000,271.357 106.000 C 271.051 106.000,270.800 105.820,270.800 105.600 C 270.800 105.380,270.609 105.200,270.376 105.200 C 270.143 105.200,270.052 105.361,270.174 105.558 C 270.296 105.755,270.126 106.019,269.798 106.146 C 269.034 106.439,267.935 106.028,268.226 105.558 C 268.348 105.361,268.257 105.200,268.024 105.200 C 267.791 105.200,267.600 105.380,267.600 105.600 C 267.600 105.820,267.330 106.000,267.000 106.000 C 266.670 106.000,266.400 106.282,266.400 106.627 C 266.400 107.059,266.166 107.180,265.647 107.015 C 265.183 106.868,264.809 106.999,264.672 107.357 C 264.528 107.733,264.136 107.856,263.562 107.706 C 262.948 107.545,262.764 107.617,262.963 107.940 C 263.125 108.202,262.974 108.512,262.618 108.648 C 262.270 108.782,262.027 109.096,262.077 109.346 C 262.206 109.991,261.100 111.600,260.527 111.600 C 260.263 111.600,259.919 111.808,259.762 112.062 C 259.592 112.337,259.651 112.415,259.909 112.256 C 260.148 112.109,260.457 112.351,260.598 112.794 C 260.931 113.842,260.467 115.289,259.909 114.944 C 259.614 114.761,259.556 115.080,259.728 115.938 L 259.980 117.200 252.690 117.280 C 238.976 117.431,213.088 117.259,212.097 117.010 C 211.156 116.774,211.115 116.643,211.279 114.381 C 211.412 112.539,211.326 112.000,210.899 112.000 C 210.528 112.000,210.430 111.736,210.600 111.200 C 210.740 110.760,210.680 110.400,210.467 110.400 C 209.963 110.400,207.200 107.637,207.200 107.133 C 207.200 106.920,206.840 106.860,206.400 107.000 C 205.832 107.180,205.600 107.072,205.600 106.627 C 205.600 106.110,205.039 106.000,202.400 106.000 C 200.053 106.000,199.227 106.133,199.300 106.500 C 199.360 106.802,199.044 106.962,198.500 106.905 C 198.005 106.852,197.600 106.993,197.600 107.218 C 197.600 107.731,194.959 110.400,194.451 110.400 C 194.244 110.400,194.163 110.737,194.271 111.148 C 194.415 111.699,194.194 111.965,193.433 112.156 C 192.420 112.410,191.919 113.296,192.900 113.100 C 193.474 112.985,193.854 116.310,193.326 116.827 C 193.014 117.131,164.192 117.440,151.197 117.277 L 144.994 117.200 145.137 115.400 C 145.256 113.907,145.163 113.600,144.590 113.600 C 144.037 113.600,143.948 113.362,144.140 112.400 C 144.326 111.469,144.237 111.200,143.743 111.200 C 143.303 111.200,143.171 110.953,143.316 110.399 C 143.431 109.959,143.394 109.680,143.234 109.779 C 142.768 110.067,141.522 108.380,141.754 107.775 C 141.870 107.473,141.765 107.102,141.521 106.951 C 141.267 106.795,141.188 106.857,141.336 107.096 C 141.479 107.327,141.320 107.622,140.983 107.751 C 140.632 107.886,140.270 107.727,140.137 107.381 C 139.992 107.001,139.625 106.865,139.153 107.015 C 138.617 107.185,138.400 107.058,138.400 106.575 C 138.400 106.020,138.140 105.938,136.977 106.126 C 135.403 106.382,134.284 106.111,134.626 105.558 C 134.748 105.361,134.657 105.200,134.424 105.200 C 134.191 105.200,134.000 105.380,134.000 105.600 M122.667 196.267 C 122.520 196.413,122.400 202.623,122.400 210.067 L 122.400 223.600 136.200 223.600 L 150.000 223.600 150.000 209.800 L 150.000 196.000 136.467 196.000 C 129.023 196.000,122.813 196.120,122.667 196.267 M122.582 234.103 C 122.476 234.379,122.436 240.634,122.494 248.003 L 122.600 261.400 136.300 261.505 L 150.000 261.611 150.000 247.605 L 150.000 233.600 136.387 233.600 C 125.825 233.600,122.732 233.713,122.582 234.103 " stroke="none" fill="#481e2b" fill-rule="evenodd"></path><path id="path1" d="M93.200 149.229 C 93.200 149.983,93.256 150.001,93.832 149.426 C 94.404 148.853,104.351 148.804,200.632 148.897 C 259.024 148.954,306.800 148.865,306.800 148.700 C 306.800 148.535,258.740 148.400,200.000 148.400 L 93.200 148.400 93.200 149.229 M236.658 153.418 C 235.636 154.198,234.800 154.934,234.800 155.052 C 234.800 155.233,237.327 153.413,238.580 152.329 C 239.646 151.406,238.275 152.183,236.658 153.418 M238.958 157.104 C 237.836 158.147,236.756 159.277,236.558 159.616 C 236.361 159.954,236.650 159.734,237.200 159.127 C 237.750 158.520,238.920 157.396,239.800 156.628 C 240.680 155.861,241.310 155.228,241.200 155.221 C 241.090 155.214,240.081 156.062,238.958 157.104 M232.605 156.794 C 231.922 157.549,231.277 157.594,219.643 157.694 L 207.400 157.800 207.295 164.000 L 207.190 170.200 208.045 168.800 C 209.851 165.845,211.910 166.398,217.400 171.313 C 220.765 174.325,221.904 174.366,222.806 171.506 C 223.102 170.568,223.852 169.026,224.472 168.080 C 225.092 167.134,225.600 166.269,225.600 166.158 C 225.600 165.591,229.135 160.871,231.264 158.595 C 232.599 157.168,233.609 156.000,233.508 156.000 C 233.407 156.000,233.001 156.357,232.605 156.794 M164.582 158.102 C 164.476 158.379,164.437 164.814,164.495 172.402 L 164.600 186.200 178.700 186.305 L 192.800 186.410 192.800 172.005 L 192.800 157.600 178.787 157.600 C 167.910 157.600,164.732 157.712,164.582 158.102 M249.782 158.102 C 249.676 158.379,249.637 164.814,249.695 172.402 L 249.800 186.200 264.100 186.305 L 278.400 186.410 278.400 172.005 L 278.400 157.600 264.187 157.600 C 253.149 157.600,249.932 157.712,249.782 158.102 M234.300 162.504 C 233.475 163.511,232.800 164.454,232.800 164.600 C 232.800 164.745,232.195 165.795,231.455 166.932 C 229.869 169.370,228.281 172.443,227.596 174.400 C 227.326 175.170,226.794 176.520,226.413 177.400 C 226.032 178.280,225.470 179.869,225.164 180.931 C 224.303 183.915,224.032 183.945,220.726 181.415 C 217.872 179.231,217.090 178.796,210.727 175.842 C 208.125 174.634,207.629 174.245,207.487 173.308 C 207.395 172.698,207.293 175.395,207.260 179.300 L 207.200 186.400 221.413 186.400 C 232.472 186.400,235.668 186.288,235.818 185.896 C 235.925 185.619,235.964 179.830,235.906 173.033 L 235.800 160.673 234.300 162.504 M121.695 209.700 L 121.790 224.200 121.900 209.905 L 122.010 195.610 136.305 195.500 L 150.600 195.390 136.100 195.295 L 121.600 195.200 121.695 209.700 M164.582 196.103 C 164.476 196.379,164.437 202.724,164.495 210.203 L 164.600 223.800 178.700 223.905 L 192.800 224.010 192.800 209.805 L 192.800 195.600 178.787 195.600 C 167.907 195.600,164.732 195.712,164.582 196.103 M207.384 196.098 C 207.277 196.377,207.237 202.724,207.295 210.203 L 207.400 223.800 221.600 223.800 L 235.800 223.800 235.800 209.800 L 235.800 195.800 221.689 195.695 C 210.577 195.612,207.537 195.698,207.384 196.098 M249.796 196.500 C 249.675 196.995,249.627 203.340,249.688 210.600 L 249.800 223.800 264.100 223.905 L 278.400 224.010 278.400 209.805 L 278.400 195.600 264.208 195.600 L 250.015 195.600 249.796 196.500 M150.580 209.800 C 150.580 217.500,150.634 220.593,150.699 216.674 C 150.765 212.755,150.765 206.455,150.699 202.674 C 150.634 198.893,150.580 202.100,150.580 209.800 M93.380 225.600 C 93.380 233.410,93.434 236.605,93.499 232.700 C 93.565 228.795,93.565 222.405,93.499 218.500 C 93.434 214.595,93.380 217.790,93.380 225.600 M129.074 224.299 C 132.855 224.365,139.155 224.365,143.074 224.299 C 146.993 224.234,143.900 224.180,136.200 224.180 C 128.500 224.180,125.293 224.234,129.074 224.299 M237.445 227.528 C 237.333 227.708,237.773 227.777,238.422 227.682 C 239.104 227.582,240.065 227.791,240.701 228.178 L 241.800 228.847 240.856 228.024 C 239.917 227.205,237.832 226.902,237.445 227.528 M234.074 232.047 L 233.148 233.189 220.274 233.294 L 207.400 233.400 207.400 247.600 L 207.400 261.800 221.600 261.800 L 235.800 261.800 235.895 251.600 C 236.005 239.839,236.231 240.120,232.362 247.200 C 231.220 249.290,229.804 251.720,229.216 252.600 C 228.628 253.480,227.850 254.830,227.487 255.600 C 225.339 260.163,223.386 260.531,219.535 257.102 C 211.417 249.870,210.591 248.544,212.875 246.416 C 214.552 244.853,215.364 245.224,220.483 249.885 C 222.355 251.590,223.200 251.990,223.200 251.172 C 223.200 250.937,223.774 249.910,224.475 248.891 C 225.176 247.872,226.406 245.859,227.208 244.419 C 229.545 240.218,230.449 238.666,231.176 237.600 C 231.551 237.050,232.164 235.934,232.539 235.119 C 232.913 234.305,233.687 233.082,234.259 232.402 C 234.831 231.722,235.232 231.108,235.150 231.036 C 235.067 230.964,234.583 231.419,234.074 232.047 M121.695 247.500 L 121.800 262.200 135.973 262.305 C 147.046 262.387,150.217 262.300,150.467 261.905 C 150.643 261.627,150.749 255.100,150.702 247.400 L 150.615 233.400 150.408 247.600 L 150.200 261.800 136.200 261.800 L 122.200 261.800 122.095 247.505 L 121.990 233.210 136.295 233.100 L 150.600 232.990 136.095 232.895 L 121.590 232.800 121.695 247.500 M164.582 233.702 C 164.476 233.979,164.437 240.414,164.495 248.002 L 164.600 261.800 178.600 261.800 L 192.600 261.800 192.705 247.500 L 192.810 233.200 178.792 233.200 C 167.911 233.200,164.732 233.312,164.582 233.702 M93.200 264.576 C 93.200 265.113,93.380 265.664,93.600 265.800 C 93.833 265.944,94.000 265.537,94.000 264.824 C 94.000 264.151,93.820 263.600,93.600 263.600 C 93.380 263.600,93.200 264.039,93.200 264.576 M306.212 265.717 C 306.041 266.112,306.013 266.547,306.151 266.684 C 306.557 267.090,306.884 266.520,306.697 265.731 C 306.532 265.033,306.510 265.032,306.212 265.717 M300.885 276.282 C 300.161 277.063,299.629 277.762,299.702 277.835 C 299.862 277.995,301.586 276.475,302.350 275.500 C 303.339 274.237,302.230 274.829,300.885 276.282 " stroke="none" fill="#9cb3e3" fill-rule="evenodd"></path><path id="path2" d="M93.839 149.418 C 93.170 150.087,93.032 263.600,93.700 263.600 C 93.865 263.600,94.000 264.680,94.000 266.000 C 94.000 267.333,94.178 268.400,94.400 268.400 C 94.620 268.400,94.800 268.760,94.800 269.200 C 94.800 269.640,94.980 270.000,95.200 270.000 C 95.420 270.000,95.600 270.360,95.600 270.800 C 95.600 271.240,95.780 271.600,96.000 271.600 C 96.220 271.600,96.400 271.960,96.400 272.400 C 96.400 272.840,96.580 273.200,96.800 273.200 C 97.020 273.200,97.200 273.475,97.200 273.811 C 97.200 274.513,100.554 278.000,101.229 278.000 C 101.477 278.000,102.183 278.540,102.800 279.200 C 103.417 279.860,104.209 280.400,104.560 280.400 C 104.912 280.400,105.200 280.580,105.200 280.800 C 105.200 281.020,105.560 281.200,106.000 281.200 C 106.440 281.200,106.800 281.380,106.800 281.600 C 106.800 281.820,107.329 282.000,107.976 282.000 C 108.623 282.000,109.264 282.180,109.400 282.400 C 109.743 282.954,290.257 282.954,290.600 282.400 C 290.736 282.180,291.377 282.000,292.024 282.000 C 292.671 282.000,293.200 281.820,293.200 281.600 C 293.200 281.380,293.560 281.200,294.000 281.200 C 294.440 281.200,294.800 281.020,294.800 280.800 C 294.800 280.580,295.160 280.400,295.600 280.400 C 296.040 280.400,296.400 280.220,296.400 280.000 C 296.400 279.780,296.667 279.600,296.994 279.600 C 297.767 279.600,303.600 273.767,303.600 272.994 C 303.600 272.667,303.780 272.400,304.000 272.400 C 304.220 272.400,304.400 272.040,304.400 271.600 C 304.400 271.160,304.580 270.800,304.800 270.800 C 305.020 270.800,305.200 270.260,305.200 269.600 C 305.200 268.940,305.380 268.400,305.600 268.400 C 305.820 268.400,306.000 267.781,306.000 267.024 C 306.000 266.267,306.180 265.536,306.400 265.400 C 306.664 265.237,306.800 245.411,306.800 207.223 L 306.800 149.293 305.900 149.052 C 303.561 148.425,94.471 148.786,93.839 149.418 M246.643 150.169 C 246.954 150.979,246.106 152.379,245.065 152.775 C 243.802 153.255,237.816 158.217,236.938 159.513 C 236.270 160.497,236.181 161.818,236.000 173.400 L 235.800 186.200 221.495 186.305 L 207.190 186.410 207.295 172.105 L 207.400 157.800 219.557 157.694 L 231.713 157.588 234.557 155.172 C 236.120 153.844,238.480 152.210,239.800 151.543 C 241.120 150.876,242.371 150.165,242.580 149.965 C 243.206 149.364,246.396 149.524,246.643 150.169 M192.800 172.005 L 192.800 186.410 178.700 186.305 L 164.600 186.200 164.495 172.402 C 164.437 164.814,164.476 158.379,164.582 158.102 C 164.732 157.712,167.910 157.600,178.787 157.600 L 192.800 157.600 192.800 172.005 M278.400 172.005 L 278.400 186.410 264.100 186.305 L 249.800 186.200 249.695 172.402 C 249.637 164.814,249.676 158.379,249.782 158.102 C 249.932 157.712,253.149 157.600,264.187 157.600 L 278.400 157.600 278.400 172.005 M150.557 195.833 C 151.050 197.117,150.828 223.412,150.320 223.920 C 149.812 224.428,123.517 224.650,122.233 224.157 C 121.672 223.942,121.600 222.280,121.600 209.557 L 121.600 195.200 135.957 195.200 C 148.680 195.200,150.342 195.272,150.557 195.833 M192.800 209.805 L 192.800 224.010 178.700 223.905 L 164.600 223.800 164.495 210.203 C 164.437 202.724,164.476 196.379,164.582 196.103 C 164.732 195.712,167.907 195.600,178.787 195.600 L 192.800 195.600 192.800 209.805 M235.800 209.800 L 235.800 223.800 221.600 223.800 L 207.400 223.800 207.295 210.203 C 207.237 202.724,207.277 196.377,207.384 196.098 C 207.537 195.698,210.577 195.612,221.689 195.695 L 235.800 195.800 235.800 209.800 M278.400 209.805 L 278.400 224.010 264.100 223.905 L 249.800 223.800 249.688 210.600 C 249.627 203.340,249.675 196.995,249.796 196.500 L 250.015 195.600 264.208 195.600 L 278.400 195.600 278.400 209.805 M241.066 228.229 C 242.471 229.634,242.179 231.085,239.739 234.831 C 236.051 240.492,236.225 239.724,236.000 251.400 L 235.800 261.800 221.600 261.800 L 207.400 261.800 207.400 247.600 L 207.400 233.400 220.166 233.294 C 234.118 233.179,233.433 233.302,235.104 230.606 C 237.371 226.946,239.095 226.259,241.066 228.229 M150.557 233.433 C 150.922 234.384,150.837 261.322,150.467 261.905 C 150.217 262.300,147.046 262.387,135.973 262.305 L 121.800 262.200 121.695 247.500 L 121.590 232.800 135.952 232.800 C 148.680 232.800,150.342 232.872,150.557 233.433 M192.705 247.500 L 192.600 261.800 178.600 261.800 L 164.600 261.800 164.495 248.002 C 164.437 240.414,164.476 233.979,164.582 233.702 C 164.732 233.312,167.911 233.200,178.792 233.200 L 192.810 233.200 192.705 247.500 " stroke="none" fill="#fbfbfb" fill-rule="evenodd"></path><path id="path3" d="M243.046 149.926 C 242.935 150.105,241.980 150.679,240.922 151.201 C 235.558 153.852,228.981 160.150,225.987 165.504 C 225.649 166.107,224.920 167.320,224.367 168.200 C 223.813 169.080,223.114 170.568,222.814 171.506 C 221.899 174.365,220.765 174.325,217.400 171.313 C 210.783 165.389,206.503 165.879,207.408 172.455 L 207.679 174.427 210.739 175.847 C 217.087 178.794,217.873 179.232,220.726 181.415 C 224.032 183.945,224.303 183.915,225.164 180.931 C 225.470 179.869,226.032 178.280,226.413 177.400 C 226.794 176.520,227.326 175.170,227.596 174.400 C 228.232 172.583,229.790 169.515,231.355 166.996 C 232.040 165.894,232.780 164.698,233.000 164.337 C 235.558 160.145,240.244 155.468,244.700 152.661 C 247.163 151.109,246.912 149.600,244.191 149.600 C 243.672 149.600,243.157 149.747,243.046 149.926 M236.880 228.407 C 236.466 228.850,235.879 229.705,235.574 230.307 C 235.269 230.908,234.615 231.904,234.120 232.519 C 233.624 233.135,232.913 234.305,232.539 235.119 C 232.164 235.934,231.551 237.050,231.176 237.600 C 230.449 238.666,229.545 240.218,227.208 244.419 C 226.406 245.859,225.176 247.872,224.475 248.891 C 223.774 249.910,223.200 250.937,223.200 251.172 C 223.200 251.990,222.355 251.590,220.483 249.885 C 215.364 245.224,214.552 244.853,212.875 246.416 C 211.163 248.011,211.645 249.815,214.500 252.496 C 223.732 261.164,224.556 261.332,227.748 255.200 C 228.264 254.210,229.592 251.870,230.701 250.000 C 234.750 243.168,235.334 242.149,236.774 239.400 C 237.581 237.860,238.997 235.462,239.920 234.072 C 241.884 231.116,242.140 229.223,240.711 228.223 C 239.482 227.362,237.777 227.444,236.880 228.407 M122.262 261.700 C 122.364 261.865,128.636 262.000,136.200 262.000 C 143.764 262.000,150.036 261.865,150.138 261.700 C 150.240 261.535,143.968 261.400,136.200 261.400 C 128.432 261.400,122.160 261.535,122.262 261.700 " stroke="none" fill="#b84f58" fill-rule="evenodd"></path><path id="path4" d="M134.626 105.558 C 134.504 105.755,134.699 106.029,135.059 106.167 C 135.846 106.469,137.200 106.093,137.200 105.573 C 137.200 105.096,134.920 105.082,134.626 105.558 M201.400 105.600 C 201.255 105.834,201.670 106.000,202.400 106.000 C 203.130 106.000,203.545 105.834,203.400 105.600 C 203.264 105.380,202.814 105.200,202.400 105.200 C 201.986 105.200,201.536 105.380,201.400 105.600 M268.226 105.558 C 267.935 106.028,269.034 106.439,269.798 106.146 C 270.576 105.847,270.168 105.200,269.200 105.200 C 268.786 105.200,268.348 105.361,268.226 105.558 M131.692 106.475 C 131.939 107.217,132.800 107.340,132.800 106.633 C 132.800 106.285,132.515 106.000,132.167 106.000 C 131.818 106.000,131.605 106.214,131.692 106.475 M138.400 106.633 C 138.400 106.982,138.614 107.195,138.875 107.108 C 139.617 106.861,139.740 106.000,139.033 106.000 C 138.685 106.000,138.400 106.285,138.400 106.633 M198.087 106.462 C 198.295 107.085,199.190 107.194,199.221 106.600 C 199.233 106.380,198.942 106.138,198.575 106.062 C 198.158 105.975,197.975 106.125,198.087 106.462 M205.600 106.633 C 205.600 107.340,206.461 107.217,206.708 106.475 C 206.795 106.214,206.582 106.000,206.233 106.000 C 205.885 106.000,205.600 106.285,205.600 106.633 M265.292 106.475 C 265.539 107.217,266.400 107.340,266.400 106.633 C 266.400 106.285,266.115 106.000,265.767 106.000 C 265.418 106.000,265.205 106.214,265.292 106.475 M272.060 106.380 C 272.232 106.896,272.781 106.988,272.830 106.510 C 272.847 106.351,272.644 106.148,272.380 106.060 C 272.116 105.972,271.972 106.116,272.060 106.380 M130.092 107.275 C 130.339 108.017,131.200 108.140,131.200 107.433 C 131.200 107.085,130.915 106.800,130.567 106.800 C 130.218 106.800,130.005 107.014,130.092 107.275 M140.108 107.300 C 140.204 107.575,140.579 107.747,140.941 107.682 C 141.304 107.618,141.600 107.760,141.600 107.999 C 141.600 108.238,141.960 108.820,142.400 109.292 C 142.840 109.764,143.200 110.387,143.200 110.675 C 143.200 110.964,143.470 111.200,143.800 111.200 C 144.130 111.200,144.400 110.930,144.400 110.600 C 144.400 110.270,144.136 110.000,143.813 110.000 C 143.489 110.000,143.304 109.775,143.401 109.500 C 143.699 108.655,141.618 106.800,140.372 106.800 C 140.131 106.800,140.012 107.025,140.108 107.300 M195.300 108.216 C 193.033 110.590,193.889 111.338,196.213 109.013 C 196.976 108.251,197.600 107.441,197.600 107.213 C 197.600 106.424,196.593 106.863,195.300 108.216 M207.200 107.160 C 207.200 107.629,209.971 110.400,210.440 110.400 C 211.149 110.400,210.777 109.657,209.360 108.240 C 207.943 106.823,207.200 106.451,207.200 107.160 M263.817 107.172 C 263.544 107.614,264.175 108.092,264.544 107.722 C 264.925 107.342,264.854 106.800,264.424 106.800 C 264.217 106.800,263.944 106.968,263.817 107.172 M273.677 107.230 C 273.755 107.466,273.991 107.660,274.200 107.660 C 274.409 107.660,274.645 107.466,274.723 107.230 C 274.802 106.993,274.567 106.800,274.200 106.800 C 273.833 106.800,273.598 106.993,273.677 107.230 M128.069 108.439 C 127.780 108.900,127.630 109.363,127.733 109.467 C 128.046 109.780,129.600 108.645,129.600 108.104 C 129.600 107.308,128.644 107.517,128.069 108.439 M262.188 108.020 C 261.807 108.635,262.328 109.032,262.842 108.518 C 263.129 108.231,263.136 108.007,262.862 107.839 C 262.639 107.700,262.335 107.782,262.188 108.020 M275.200 108.029 C 275.200 108.582,276.218 109.600,276.771 109.600 C 277.378 109.600,277.303 108.846,276.629 108.171 C 275.954 107.497,275.200 107.422,275.200 108.029 M260.800 110.199 C 260.506 110.749,260.381 111.315,260.523 111.456 C 260.847 111.780,262.393 109.912,262.139 109.502 C 261.799 108.950,261.341 109.189,260.800 110.199 M126.800 110.767 C 126.800 111.258,127.058 111.600,127.429 111.600 C 127.802 111.600,128.006 111.328,127.929 110.933 C 127.735 109.930,126.800 109.792,126.800 110.767 M277.067 110.267 C 276.606 110.727,276.775 111.200,277.400 111.200 C 277.730 111.200,278.000 110.930,278.000 110.600 C 278.000 109.975,277.527 109.806,277.067 110.267 M193.200 111.400 C 193.200 111.730,193.470 112.000,193.800 112.000 C 194.130 112.000,194.400 111.730,194.400 111.400 C 194.400 111.070,194.130 110.800,193.800 110.800 C 193.470 110.800,193.200 111.070,193.200 111.400 M210.667 111.067 C 210.206 111.527,210.375 112.000,211.000 112.000 C 211.330 112.000,211.600 111.730,211.600 111.400 C 211.600 110.775,211.127 110.606,210.667 111.067 M144.267 111.867 C 143.763 112.370,144.000 113.600,144.600 113.600 C 144.973 113.600,145.200 113.222,145.200 112.600 C 145.200 111.629,144.811 111.323,144.267 111.867 M259.878 112.255 C 259.461 112.672,259.543 114.718,259.988 114.993 C 260.527 115.326,260.953 113.402,260.514 112.618 C 260.317 112.266,260.031 112.103,259.878 112.255 M126.000 114.367 L 126.000 116.400 118.224 116.400 C 111.469 116.400,108.747 116.716,110.490 117.297 C 111.590 117.663,126.196 117.135,126.708 116.711 C 127.375 116.157,127.206 112.730,126.500 112.498 C 126.144 112.381,126.000 112.919,126.000 114.367 M211.467 112.667 C 211.320 112.813,211.200 113.800,211.200 114.859 C 211.200 117.394,210.134 117.249,229.244 117.309 C 252.758 117.384,260.000 117.264,260.000 116.800 C 260.000 116.538,251.800 116.400,236.200 116.400 L 212.400 116.400 212.400 114.400 C 212.400 112.541,212.117 112.016,211.467 112.667 M277.752 112.981 C 277.629 113.300,277.646 113.750,277.788 113.981 C 278.254 114.735,278.800 114.421,278.800 113.400 C 278.800 112.316,278.113 112.041,277.752 112.981 M192.656 113.078 C 192.515 113.218,192.400 114.023,192.400 114.867 L 192.400 116.400 168.824 116.400 C 153.537 116.400,145.160 116.541,145.000 116.800 C 144.641 117.381,192.351 117.525,193.288 116.945 C 193.713 116.683,193.685 113.300,193.256 113.034 C 193.066 112.917,192.796 112.937,192.656 113.078 M278.635 116.743 C 278.399 117.125,288.130 117.617,289.762 117.305 C 290.333 117.196,290.800 116.948,290.800 116.753 C 290.800 116.298,278.916 116.288,278.635 116.743 M106.877 117.630 C 106.956 117.867,107.191 118.060,107.400 118.060 C 107.609 118.060,107.844 117.867,107.923 117.630 C 108.002 117.394,107.767 117.200,107.400 117.200 C 107.033 117.200,106.798 117.394,106.877 117.630 M292.000 117.600 C 292.000 117.820,292.270 118.000,292.600 118.000 C 292.930 118.000,293.200 117.820,293.200 117.600 C 293.200 117.380,292.930 117.200,292.600 117.200 C 292.270 117.200,292.000 117.380,292.000 117.600 M105.200 118.400 C 105.200 118.620,105.470 118.800,105.800 118.800 C 106.130 118.800,106.400 118.620,106.400 118.400 C 106.400 118.180,106.130 118.000,105.800 118.000 C 105.470 118.000,105.200 118.180,105.200 118.400 M103.677 119.230 C 103.756 119.466,103.991 119.660,104.200 119.660 C 104.409 119.660,104.644 119.466,104.723 119.230 C 104.802 118.993,104.567 118.800,104.200 118.800 C 103.833 118.800,103.598 118.993,103.677 119.230 M296.892 120.076 C 297.092 120.676,299.122 122.212,299.377 121.956 C 299.667 121.666,297.775 119.600,297.220 119.600 C 296.952 119.600,296.805 119.814,296.892 120.076 M101.189 121.059 C 100.852 121.150,100.346 121.594,100.064 122.046 C 99.313 123.248,100.696 122.915,101.501 121.700 C 101.829 121.205,102.031 120.821,101.949 120.846 C 101.867 120.872,101.525 120.967,101.189 121.059 M300.400 122.167 C 300.400 122.588,301.605 123.728,301.821 123.512 C 301.922 123.411,301.644 123.002,301.202 122.602 C 300.761 122.203,300.400 122.007,300.400 122.167 M302.678 125.456 C 302.358 125.775,302.719 126.400,303.224 126.400 C 303.431 126.400,303.600 126.130,303.600 125.800 C 303.600 125.181,303.128 125.005,302.678 125.456 M303.478 127.056 C 303.158 127.375,303.519 128.000,304.024 128.000 C 304.231 128.000,304.400 127.730,304.400 127.400 C 304.400 126.781,303.928 126.605,303.478 127.056 M304.400 129.000 C 304.400 129.330,304.580 129.600,304.800 129.600 C 305.020 129.600,305.200 129.330,305.200 129.000 C 305.200 128.670,305.020 128.400,304.800 128.400 C 304.580 128.400,304.400 128.670,304.400 129.000 M305.000 130.400 C 304.708 130.872,305.087 131.600,305.624 131.600 C 305.831 131.600,306.000 131.240,306.000 130.800 C 306.000 129.956,305.418 129.724,305.000 130.400 M94.000 131.600 C 94.000 132.040,94.180 132.400,94.400 132.400 C 94.620 132.400,94.800 132.040,94.800 131.600 C 94.800 131.160,94.620 130.800,94.400 130.800 C 94.180 130.800,94.000 131.160,94.000 131.600 M305.849 133.656 C 305.712 134.340,305.600 137.848,305.600 141.451 L 305.600 148.001 200.100 147.901 L 94.600 147.800 94.349 142.200 C 94.211 139.120,94.076 136.184,94.049 135.676 C 94.022 135.168,93.820 134.864,93.600 135.000 C 93.360 135.149,93.200 137.871,93.200 141.825 L 93.200 148.403 200.000 148.399 L 306.800 148.394 306.800 140.621 C 306.800 133.380,306.436 130.718,305.849 133.656 M122.448 196.142 C 122.118 196.540,122.019 200.505,122.095 210.247 L 122.200 223.800 136.200 223.800 L 150.200 223.800 150.200 209.800 L 150.200 195.800 136.553 195.695 C 125.335 195.608,122.825 195.688,122.448 196.142 M150.000 209.800 L 150.000 223.600 136.200 223.600 L 122.400 223.600 122.400 210.067 C 122.400 202.623,122.520 196.413,122.667 196.267 C 122.813 196.120,129.023 196.000,136.467 196.000 L 150.000 196.000 150.000 209.800 M122.485 233.675 C 121.938 234.222,121.759 261.004,122.300 261.338 C 122.465 261.440,122.600 255.286,122.600 247.662 L 122.600 233.800 136.295 233.695 L 149.990 233.590 150.103 247.395 L 150.216 261.200 150.208 247.300 L 150.200 233.400 136.585 233.295 C 126.330 233.216,122.851 233.309,122.485 233.675 " stroke="none" fill="#5e4c64" fill-rule="evenodd"></path></g></svg>