<?xml version="1.0" standalone="no"?>
<!DOCTYPE svg PUBLIC "-//W3C//DTD SVG 20010904//EN"
 "http://www.w3.org/TR/2001/REC-SVG-20010904/DTD/svg10.dtd">
<svg version="1.0" xmlns="http://www.w3.org/2000/svg"
 width="500.000000pt" height="500.000000pt" viewBox="0 0 500.000000 500.000000"
 preserveAspectRatio="xMidYMid meet">

<g transform="translate(0.000000,500.000000) scale(0.100000,-0.100000)"
fill="#A22F3F" stroke="none">
<path d="M1190 2500 c0 -412 2 -750 4 -750 3 0 112 62 243 138 227 132 729
423 796 461 18 10 61 36 97 56 36 21 86 50 113 63 26 14 47 28 47 32 0 4 -21
18 -47 32 -27 13 -77 42 -113 63 -36 20 -79 46 -97 56 -67 38 -569 329 -796
461 -131 76 -240 138 -243 138 -2 0 -4 -337 -4 -750z"/>
<path d="M3560 3111 c-193 -113 -663 -386 -793 -460 -18 -10 -61 -36 -97 -56
-36 -21 -86 -50 -112 -63 -27 -14 -48 -28 -48 -32 0 -4 21 -18 48 -32 26 -13
76 -42 112 -63 36 -20 79 -46 97 -56 67 -38 569 -329 796 -461 131 -76 240
-138 243 -138 2 0 4 338 4 750 0 413 -3 750 -7 749 -5 0 -114 -63 -243 -138z"/>
</g>
</svg>
